<svg xmlns="http://www.w3.org/2000/svg" viewBox="0 0 64 64" fill="none">
  <rect width="64" height="64" rx="12" fill="#0f100e"/>
  <path
    d="M20.5 9.5c-5.25 0-6.25 4.25-6.25 8.25v4.5c0 4.5-4.25 4.75-4.25 9.75s4.25 5.25 4.25 9.75v4.5c0 4 1 8.25 6.25 8.25"
    stroke="#ded2bd"
    stroke-width="3.25"
    stroke-linecap="round"
    stroke-linejoin="round"
    opacity="0.82"
  />
  <path
    d="M43.5 9.5c5.25 0 6.25 4.25 6.25 8.25v4.5c0 4.5 4.25 4.75 4.25 9.75s-4.25 5.25-4.25 9.75v4.5c0 4-1 8.25-6.25 8.25"
    stroke="#ded2bd"
    stroke-width="3.25"
    stroke-linecap="round"
    stroke-linejoin="round"
    opacity="0.82"
  />
  <path
    d="M32 25c-3.2-3.1-6.65-3.65-10.25-2.5v18.8c4.05-.85 7.4.25 10.25 3.35m0-19.65c3.2-3.1 6.65-3.65 10.25-2.5v18.8c-4.05-.85-7.4.25-10.25 3.35"
    stroke="#ded2bd"
    stroke-width="2.75"
    stroke-linecap="round"
    stroke-linejoin="round"
  />
  <path
    d="M32 24.25V46.4"
    stroke="#ded2bd"
    stroke-width="2.75"
    stroke-linecap="round"
    opacity="0.78"
  />
  <path
    d="M24 25.7v12.25c2.75-.15 5.5 1.05 8 3.55m8-15.8v12.25c-2.75-.15-5.5 1.05-8 3.55"
    stroke="#a97835"
    stroke-width="1.8"
    stroke-linecap="round"
    stroke-linejoin="round"
    opacity="0.9"
  />
</svg>
